<svg xmlns="http://www.w3.org/2000/svg" viewBox="0 0 512 512" role="img">
  <title>TypeRace.io</title>
  <rect width="512" height="512" fill="#1f1f28"/>
  <path d="m 96.280383,367.24 q -4.84,-11.88 -7.04,-27.28 -2.2,-15.84 -2.2,-44 0,-28.16 10.56,-76.12 h -19.8 q -5.28,0 -5.28,-4.4 0,-10.56 1.76,-17.16 2.2,-7.04 9.68,-15.84 h 10.56 q 6.159997,0 13.199997,-0.44 21.12,-67.76 43.12,-67.76 17.6,0.44 24.64,22.44 1.76,6.16 3.96,13.2 l -18.04,31.68 q 30.8,0.88 38.72,0.88 8.36,0 8.8,1.76 0.88,1.32 0.88,4.4 0,7.92 -3.96,19.8 -3.52,11.88 -8.36,11.44 l -44,-2.2 q -9.24,53.68 -9.24,88.88 0,35.2 10.12,35.2 8.36,0 30.36,-13.64 22,-14.08 31.68,-26.84 9.68,-12.76 15.84,-12.76 6.16,0 6.16,14.96 0,14.96 -10.56,30.8 -10.56,15.4 -26.84,28.6 -15.84,12.76 -35.64,21.12 -19.36,8.36 -33.88,8.36 -14.52,0 -22.44,-6.6 -7.48,-7.04 -12.759997,-18.48 z m 184.359747,-50.16 2.64,53.68 q 0,10.56 -11,18.92 -11,8.36 -29.92,8.36 -11,0 -15.4,-11.44 -3.96,-11.44 -3.96,-33.44 0,-46.2 4.4,-72.16 4.84,-26.4 18.48,-53.24 -20.24,-19.36 -20.24,-33.44 0,-29.48 31.68,-29.48 16.28,0 28.6,17.16 8.8,11.88 12.76,27.72 6.16,2.2 15.4,2.2 12.76,0 29.48,-8.36 l 11.44,-5.72 q 5.28,-2.64 9.24,-2.64 12.76,0 25.52,37.4 -3.96,17.16 -8.8,33 -4.4,15.84 -10.56,38.28 -6.16,22.44 -6.6,30.36 0,7.48 4.84,7.48 6.6,0 16.28,-8.36 9.68,-8.36 19.36,-18.04 9.68,-10.12 17.6,-18.48 8.36,-8.36 11.44,-8.36 6.16,0 6.16,14.96 0,30.36 -26.84,59.84 -26.4,29.48 -60.72,29.04 -20.24,0 -30.36,-16.28 -10.12,-16.28 -10.56,-39.6 0,-46.2 20.68,-87.56 -9.68,3.96 -22,3.96 -11.88,0 -17.16,-0.88 -3.96,16.72 -7.92,33.88 -3.96,16.72 -3.96,31.24 z" fill="#7e9cd8"/>
</svg>
